<?xml version="1.0" encoding="UTF-8" standalone="no"?>
<!DOCTYPE svg PUBLIC "-//W3C//DTD SVG 1.1//EN" "http://www.w3.org/Graphics/SVG/1.1/DTD/svg11.dtd">
<svg width="100%" height="100%" viewBox="0 0 67 67" version="1.1" xmlns="http://www.w3.org/2000/svg" xmlns:xlink="http://www.w3.org/1999/xlink" xml:space="preserve" xmlns:serif="http://www.serif.com/" style="fill-rule:evenodd;clip-rule:evenodd;stroke-linejoin:round;stroke-miterlimit:2;">
    <g transform="matrix(0.126966,0,0,0.126966,0.996631,0.99651)">
        <g>
            <path d="M361.976,300.852L361.976,300.626L328.682,333.923L328.682,412.297C328.682,425.219 318.163,435.735 305.175,435.735L155.953,435.735C147.363,435.735 139.039,434.872 130.98,433.208L130.98,353.23C130.98,344.844 124.187,338.117 115.867,338.117L35.891,338.117C34.161,330.062 33.364,321.671 33.364,313.148L33.364,99.664C33.364,86.746 43.817,76.226 56.802,76.226L305.176,76.226C318.164,76.226 328.683,86.746 328.683,99.664L328.683,110.633L328.57,118.395L328.683,118.281L328.683,118.508L360.512,86.68C354.586,61.641 332.078,42.93 305.176,42.93L56.801,42.93C25.504,42.93 0,68.368 0,99.664L0,313.148C0,323.8 1.066,334.522 3.195,344.906C15.848,405.707 63.328,453.183 124.257,465.836C134.577,467.969 145.23,469.098 155.952,469.098L305.174,469.098C336.537,469.098 361.975,443.594 361.975,412.297L361.975,346.755L362.088,300.739L361.976,300.852Z" style="fill:white;fill-rule:nonzero;"/>
            <path d="M508.448,99.907L454.995,46.45C454.604,46.059 454.104,45.895 453.674,45.567C453.236,45.231 452.788,44.93 452.319,44.661C451.385,44.13 450.46,43.743 449.452,43.482C449.03,43.372 448.608,43.29 448.174,43.228C447.624,43.146 447.092,42.904 446.545,42.904C443.702,42.904 440.908,43.954 438.787,46.072L202.734,282.125L174.621,372.171C173.3,376.401 176.75,380.561 180.871,380.561C181.485,380.561 182.109,380.475 182.731,380.28L272.781,352.162L508.831,116.112C513.202,111.743 513.03,104.484 508.448,99.907ZM267.043,337.844L265.219,339.668L208.797,357.282L197.622,346.11L215.235,289.688L217.063,287.86L225.548,287.418C228.278,287.273 230.857,288.258 232.794,290.195C234.731,292.133 235.716,294.711 235.575,297.445C235.266,303.327 237.477,309.09 241.645,313.257C245.809,317.422 251.575,319.632 257.458,319.327C260.192,319.183 262.766,320.175 264.704,322.109C266.646,324.047 267.63,326.624 267.486,329.355L267.043,337.844ZM458.94,126.051L459.155,125.837L461.139,127.821L463.983,130.876L465.307,132.414L458.94,126.051ZM433.867,100.977L434.081,100.758L438.132,104.813L443.944,110.84L446.722,113.828L433.867,100.977ZM418.906,86.016L419.12,85.802L421.108,87.794L423.952,90.848L425.269,92.38L418.906,86.016ZM424.151,80.805L424.136,80.785L446.702,58.219L496.686,108.2L474.116,130.766L424.342,80.996L424.151,80.805Z" style="fill:white;fill-rule:nonzero;"/>
        </g>
    </g>
</svg>
